<svg width="460" height="360" viewBox="0 0 460 360" fill="none" xmlns="http://www.w3.org/2000/svg"><rect width="460" height="360" fill="#EEEEEE"/><path d="M166.776 132.547C170.714 128.433 177.286 128.433 181.224 132.547L266.929 222.085C273.016 228.445 268.509 239 259.705 239H88.2954C79.4914 239 74.9836 228.445 81.0713 222.085L166.776 132.547Z" fill="#969495"/><path d="M180.502 133.239L266.206 222.777C271.685 228.501 267.628 238 259.705 238H88.2954C80.3718 238 76.3148 228.501 81.7937 222.777L167.498 133.239C171.042 129.536 176.958 129.536 180.502 133.239Z" stroke="#7B7B7B" stroke-opacity=".4" stroke-width="2"/><path d="M239.019 133.433C242.998 128.948 250.002 128.948 253.981 133.433L359.481 252.364C365.204 258.815 360.624 269 352 269H140.999C132.376 269 127.796 258.815 133.519 252.364L239.019 133.433Z" fill="#969495"/><circle cx="331" cy="104" r="40" fill="#969495"/><circle cx="331" cy="104" r="39" stroke="#7B7B7B" stroke-opacity=".4" stroke-width="2"/></svg>
